<svg xmlns="http://www.w3.org/2000/svg" width="256" height="256" viewBox="0 0 100 100"><rect width="100" height="100" rx="20" fill="#6e9be7"></rect><path d="M38.34 56.62L10.63 60.48Q13.05 72.28 26.11 72.28L26.11 72.28Q29.89 72.28 32.94 71.02Q36.00 69.75 37.80 68.31L37.80 68.31Q39.97 69.58 39.97 71.73L39.97 71.73Q39.97 73.00 38.84 74.17Q37.72 75.34 35.78 76.23Q33.84 77.14 31.28 77.67Q28.71 78.22 25.75 78.22L25.75 78.22Q15.30 78.22 9.23 72.55Q3.16 66.88 3.16 55.98L3.16 55.98Q3.16 50.86 4.64 46.85Q6.13 42.85 8.78 40.05Q11.44 37.27 15.13 35.78Q18.82 34.30 23.14 34.30L23.14 34.30Q27.18 34.30 30.61 35.65Q34.03 37.00 36.50 39.47Q38.97 41.95 40.37 45.32Q41.77 48.70 41.77 52.75L41.77 52.75Q41.77 54.73 40.86 55.58Q39.97 56.44 38.34 56.62L38.34 56.62ZM23.05 40.15L23.05 40.15Q17.55 40.15 13.96 43.97Q10.36 47.80 10.18 54.91L10.18 54.91L34.92 51.48Q34.47 46.54 31.46 43.34Q28.45 40.15 23.05 40.15ZM57.42 77.50L57.42 77.50Q53.46 77.50 53.46 74.25L53.46 74.25L53.46 23.41Q55.08 21.79 58.32 21.79L58.32 21.79Q60.48 21.79 62.02 22.64Q63.55 23.50 64.80 25.75L64.80 25.75L82.00 54.55Q83.07 56.44 84.25 58.55Q85.41 60.67 86.50 62.78Q87.57 64.89 88.52 66.74Q89.47 68.59 90.09 69.84L90.09 69.84L90.45 69.75Q89.73 62.47 89.60 55.09Q89.47 47.70 89.47 40.69L89.47 40.69L89.47 22.51Q90.00 22.33 90.91 22.10Q91.81 21.88 92.88 21.88L92.88 21.88Q96.84 21.88 96.84 25.12L96.84 25.12L96.84 76.06Q96.03 76.78 94.78 77.18Q93.51 77.59 91.98 77.59L91.98 77.59Q89.82 77.59 88.29 76.73Q86.76 75.88 85.50 73.63L85.50 73.63L68.41 44.83Q67.32 43.03 66.11 40.87Q64.89 38.71 63.77 36.64Q62.64 34.57 61.70 32.68Q60.75 30.79 60.13 29.53L60.13 29.53L59.77 29.62Q60.21 33.94 60.48 39.47Q60.75 45.01 60.75 49.95L60.75 49.95L60.75 76.86Q60.30 77.05 59.36 77.27Q58.41 77.50 57.42 77.50Z" fill="#fff"></path></svg>